HIERARCHY
ROOT Hips
{
	OFFSET 0.000000 0.000000 0.000000
	CHANNELS 6 Xposition Yposition Zposition Zrotation Xrotation Yrotation
	JOINT Spine
	{
		OFFSET 0.000000 -0.000000 0.081436
		CHANNELS 6 Xposition Yposition Zposition Zrotation Xrotation Yrotation
		JOINT Spine1
		{
			OFFSET 0.000000 -0.000000 0.206037
			CHANNELS 6 Xposition Yposition Zposition Zrotation Xrotation Yrotation
			JOINT Neck
			{
				OFFSET 0.000000 -0.000000 0.206037
				CHANNELS 6 Xposition Yposition Zposition Zrotation Xrotation Yrotation
				JOINT Head
				{
					OFFSET 0.000000 -0.000000 0.109243
					CHANNELS 6 Xposition Yposition Zposition Zrotation Xrotation Yrotation
					End Site
					{
						OFFSET 0.000000 -0.000000 0.248279
					}
				}
			}
			JOINT LeftShoulder
			{
				OFFSET 0.039631 0.002820 0.186820
				CHANNELS 6 Xposition Yposition Zposition Zrotation Xrotation Yrotation
				JOINT LeftArm
				{
					OFFSET 0.111855 0.000000 0.000000
					CHANNELS 6 Xposition Yposition Zposition Zrotation Xrotation Yrotation
					JOINT LeftForeArm
					{
						OFFSET 0.340751 0.000000 0.000000
						CHANNELS 6 Xposition Yposition Zposition Zrotation Xrotation Yrotation
						JOINT LeftHand
						{
							OFFSET 0.213779 0.000000 0.000000
							CHANNELS 6 Xposition Yposition Zposition Zrotation Xrotation Yrotation
							End Site
							{
								OFFSET 0.148968 0.000000 0.000000
							}
						}
					}
				}
			}
			JOINT RightShoulder
			{
				OFFSET -0.039679 0.002820 0.186820
				CHANNELS 6 Xposition Yposition Zposition Zrotation Xrotation Yrotation
				JOINT RightArm
				{
					OFFSET -0.111855 0.000000 0.000000
					CHANNELS 6 Xposition Yposition Zposition Zrotation Xrotation Yrotation
					JOINT RightForeArm
					{
						OFFSET -0.340751 0.000000 0.000000
						CHANNELS 6 Xposition Yposition Zposition Zrotation Xrotation Yrotation
						JOINT RightHand
						{
							OFFSET -0.213779 0.000000 0.000000
							CHANNELS 6 Xposition Yposition Zposition Zrotation Xrotation Yrotation
							End Site
							{
								OFFSET -0.148968 0.000000 0.000000
							}
						}
					}
				}
			}
		}
	}
	JOINT LeftUpLeg
	{
		OFFSET 0.099312 0.000000 0.000000
		CHANNELS 6 Xposition Yposition Zposition Zrotation Xrotation Yrotation
		JOINT LeftLeg
		{
			OFFSET 0.000000 0.000000 -0.476468
			CHANNELS 6 Xposition Yposition Zposition Zrotation Xrotation Yrotation
			JOINT LeftFoot
			{
				OFFSET 0.000000 0.000000 -0.378939
				CHANNELS 6 Xposition Yposition Zposition Zrotation Xrotation Yrotation
				JOINT LeftToeBase
				{
					OFFSET 0.000000 -0.148968 -0.064553
					CHANNELS 6 Xposition Yposition Zposition Zrotation Xrotation Yrotation
					End Site
					{
						OFFSET 0.000000 -0.039725 -0.000000
					}
				}
			}
		}
	}
	JOINT RightUpLeg
	{
		OFFSET -0.099312 0.000000 0.000000
		CHANNELS 6 Xposition Yposition Zposition Zrotation Xrotation Yrotation
		JOINT RightLeg
		{
			OFFSET 0.000000 0.000000 -0.476468
			CHANNELS 6 Xposition Yposition Zposition Zrotation Xrotation Yrotation
			JOINT RightFoot
			{
				OFFSET 0.000000 0.000000 -0.378939
				CHANNELS 6 Xposition Yposition Zposition Zrotation Xrotation Yrotation
				JOINT RightToeBase
				{
					OFFSET 0.000000 -0.148968 -0.064553
					CHANNELS 6 Xposition Yposition Zposition Zrotation Xrotation Yrotation
					End Site
					{
						OFFSET 0.000000 -0.039725 -0.000000
					}
				}
			}
		}
	}
}
MOTION
Frames: 8
Frame Time: 0.041667
0.358752 -0.211370 1.006187 44.910454 0.995175 -1.851763 0.000000 0.000000 0.081436 0.023348 -8.245150 0.323390 0.000000 -0.000000 0.206037 -1.881145 4.189443 -0.412775 0.000000 0.000000 0.206037 1.217423 23.460011 -5.858489 0.000000 -0.000000 0.109243 21.318151 6.539544 1.270113 0.039631 0.002820 0.186820 4.216976 12.019571 0.947876 0.111855 -0.000000 -0.000000 -47.382450 1.647739 68.054352 0.340751 -0.000000 0.000000 -23.119569 2.323674 -11.326363 0.213779 -0.000000 -0.000000 -0.948354 -2.914980 -0.341243 -0.039679 0.002820 0.186820 3.269473 7.839630 4.783547 -0.111855 0.000000 0.000000 41.486374 5.078323 -70.608747 -0.340751 -0.000000 -0.000000 26.774666 2.372715 9.945267 -0.213779 0.000000 0.000000 -1.459700 -9.900416 7.045768 0.099312 0.000000 -0.000000 9.716942 1.535341 -4.989748 -0.000000 0.000000 -0.476468 -1.992094 3.368649 1.787776 -0.000000 0.000000 -0.378939 16.259805 -4.294976 3.999573 0.000000 -0.148968 -0.064553 0.000002 -0.000000 0.000000 -0.099312 -0.000000 -0.000000 1.574230 -5.906399 2.301512 -0.000000 0.000000 -0.476468 3.804608 20.411117 0.087707 -0.000000 0.000000 -0.378939 -17.766528 -15.168819 -6.074761 -0.000000 -0.148968 -0.064553 -0.000002 -0.000001 -0.000001 
0.356392 -0.210941 1.006471 45.354416 1.265239 -2.085614 -0.000000 -0.000000 0.081436 0.009246 -8.304291 0.126844 -0.000000 0.000000 0.206037 -1.742173 4.112400 -0.281518 -0.000000 -0.000000 0.206037 1.238931 23.558178 -5.936327 -0.000000 0.000000 0.109243 21.365218 6.352884 1.006197 0.039631 0.002820 0.186820 4.364045 12.596967 0.736357 0.111855 0.000000 -0.000000 -46.586750 1.385445 68.220175 0.340751 -0.000000 -0.000000 -22.807064 2.171726 -10.738061 0.213779 0.000000 -0.000000 -0.485620 -2.612260 -0.377498 -0.039679 0.002820 0.186820 3.399570 7.764227 4.728920 -0.111855 0.000000 -0.000000 41.433840 5.053689 -70.124856 -0.340751 -0.000000 0.000000 26.814305 2.418162 10.119420 -0.213779 -0.000000 0.000000 -1.518348 -10.168902 6.784470 0.099312 0.000000 0.000000 9.508661 1.042502 -4.782481 0.000000 0.000000 -0.476468 -2.137885 3.418532 1.806032 0.000000 0.000000 -0.378939 15.951214 -4.046817 3.584727 0.000000 -0.148968 -0.064553 0.000000 0.000001 0.000002 -0.099312 -0.000000 0.000000 1.378853 -6.309070 2.412945 -0.000000 0.000000 -0.476468 3.788263 20.532583 0.144289 0.000000 0.000000 -0.378939 -17.955918 -15.168687 -6.075789 -0.000000 -0.148968 -0.064553 -0.000003 0.000002 0.000002 
0.354448 -0.210770 1.007054 45.950647 1.426867 -2.435479 -0.000000 -0.000000 0.081436 0.017290 -8.559383 0.230535 0.000000 -0.000000 0.206037 -1.473424 4.538349 -0.362202 -0.000000 -0.000000 0.206037 1.201991 23.122260 -5.871145 -0.000000 -0.000000 0.109243 21.699480 6.436802 0.266546 0.039631 0.002820 0.186820 4.121411 12.140227 0.373199 0.111855 0.000000 0.000000 -46.015770 1.460480 69.331536 0.340751 0.000000 0.000000 -21.806183 2.039436 -10.559831 0.213779 -0.000000 0.000000 -0.063276 -2.930918 -0.472637 -0.039679 0.002820 0.186820 3.058289 7.509463 4.835699 -0.111855 0.000000 0.000000 41.460812 4.920854 -69.648388 -0.340751 -0.000000 0.000000 26.697790 2.392673 10.058297 -0.213779 0.000000 -0.000000 -1.378197 -10.170026 6.324970 0.099312 -0.000000 0.000000 9.275846 0.639938 -4.471580 -0.000000 0.000000 -0.476468 -1.712409 3.454663 1.778044 -0.000000 0.000000 -0.378939 14.973284 -3.541715 3.123618 0.000000 -0.148968 -0.064553 -0.000001 0.000002 0.000001 -0.099312 -0.000000 -0.000000 1.108738 -6.524236 2.628219 0.000000 0.000000 -0.476468 3.547771 20.568251 0.283093 0.000000 0.000000 -0.378939 -18.023884 -15.140400 -6.060611 -0.000000 -0.148968 -0.064553 -0.000001 0.000002 -0.000000 
0.352785 -0.210389 1.007674 46.591459 1.526018 -2.755678 -0.000000 0.000000 0.081436 0.024786 -8.506226 0.332810 -0.000000 -0.000000 0.206037 -1.410821 4.540123 -0.452211 0.000000 -0.000000 0.206037 1.247619 22.978976 -6.132545 -0.000000 0.000000 0.109243 21.613553 6.526424 0.048866 0.039631 0.002820 0.186820 4.221909 12.158777 0.194391 0.111855 0.000000 0.000000 -45.434545 1.474288 69.963690 0.340751 -0.000000 0.000000 -20.607879 1.822938 -10.003563 0.213779 0.000000 -0.000000 -0.936673 -2.993042 -0.757143 -0.039679 0.002820 0.186820 3.024595 7.427940 4.918096 -0.111855 -0.000000 0.000000 41.548474 4.962316 -69.280924 -0.340751 -0.000000 0.000000 26.512995 2.362084 10.001737 -0.213779 0.000000 0.000000 -1.304723 -10.182414 6.307654 0.099312 0.000000 -0.000000 9.063231 0.228218 -4.192797 0.000000 0.000000 -0.476468 -1.934571 3.658837 1.873129 0.000000 0.000000 -0.378939 14.511500 -3.287906 2.513700 -0.000000 -0.148968 -0.064553 -0.000002 -0.000001 -0.000001 -0.099312 0.000000 -0.000000 0.772736 -6.683492 2.823216 0.000000 0.000000 -0.476468 3.358612 20.593287 0.435814 -0.000000 0.000000 -0.378939 -18.106340 -15.043225 -6.079320 -0.000000 -0.148968 -0.064553 -0.000001 0.000001 0.000000 
0.351384 -0.210041 1.008288 47.236055 1.622102 -3.059598 0.000000 -0.000000 0.081436 0.036006 -8.475451 0.485423 -0.000000 0.000000 0.206037 -1.571926 4.552922 -0.757569 0.000000 -0.000000 0.206037 1.198342 22.950083 -5.898359 -0.000000 -0.000000 0.109243 21.786466 6.436765 -0.276641 0.039631 0.002820 0.186820 4.412937 12.345489 0.377976 0.111855 -0.000000 -0.000000 -44.633845 1.629757 70.363974 0.340751 0.000000 0.000000 -20.314405 1.729280 -9.631409 0.213779 0.000000 -0.000000 0.422679 -3.301712 -0.278699 -0.039679 0.002820 0.186820 2.631872 7.494627 5.209165 -0.111855 0.000000 0.000000 43.195387 5.285397 -68.962658 -0.340751 -0.000000 0.000000 26.262195 2.492445 10.654619 -0.213779 -0.000000 0.000000 -1.569474 -11.138047 5.889937 0.099312 0.000000 0.000000 9.253289 -0.250572 -3.937329 0.000000 0.000000 -0.476468 -3.393971 3.982030 1.943222 0.000000 0.000000 -0.378939 14.411419 -3.220653 1.944951 0.000000 -0.148968 -0.064553 -0.000002 -0.000000 -0.000002 -0.099312 -0.000000 0.000000 0.440433 -6.817682 3.020874 -0.000000 0.000000 -0.476468 3.153359 20.602979 0.577177 0.000000 0.000000 -0.378939 -18.163075 -14.960872 -6.112267 -0.000000 -0.148968 -0.064553 -0.000002 0.000001 0.000001 
0.350194 -0.209465 1.008866 47.934975 1.715989 -3.320536 0.000000 -0.000000 0.081436 0.031331 -8.436304 0.424283 0.000000 0.000000 0.206037 -1.712328 4.522666 -0.700011 -0.000000 -0.000000 0.206037 1.206572 22.865662 -5.961232 0.000000 -0.000000 0.109243 21.885169 6.486668 -0.584911 0.039631 0.002820 0.186820 4.508883 12.526025 0.345021 0.111855 -0.000000 0.000000 -44.012462 1.881594 70.866286 0.340751 -0.000000 -0.000000 -19.437393 1.586142 -9.242772 0.213779 0.000000 0.000000 -0.358313 -3.365223 -0.362194 -0.039679 0.002820 0.186820 2.693137 7.488842 5.248741 -0.111855 -0.000000 0.000000 43.106584 5.230423 -68.582093 -0.340751 -0.000000 0.000000 25.922706 2.347089 10.171776 -0.213779 0.000000 0.000000 -1.234830 -10.378540 5.973762 0.099312 -0.000000 -0.000000 9.214251 -0.746541 -3.664450 0.000000 0.000000 -0.476468 -3.710772 4.298505 1.850933 0.000000 0.000000 -0.378939 13.011273 -3.290449 1.042084 0.000000 -0.148968 -0.064553 0.000001 0.000002 0.000001 -0.099312 0.000000 -0.000000 0.032235 -6.935693 3.204864 -0.000000 0.000000 -0.476468 3.000176 20.584882 0.677961 0.000000 0.000000 -0.378939 -18.218768 -14.884753 -6.085013 -0.000000 -0.148968 -0.064553 -0.000002 0.000001 0.000001 
0.349210 -0.209144 1.009262 48.460493 1.761101 -3.513764 0.000000 0.000000 0.081436 0.023848 -8.369585 0.325488 0.000000 0.000000 0.206037 -1.646958 4.499400 -0.614396 0.000000 0.000000 0.206037 1.440717 22.757277 -7.150070 0.000000 -0.000000 0.109243 21.714829 7.087774 0.415039 0.039631 0.002820 0.186820 4.686259 12.622234 0.189187 0.111855 0.000000 -0.000000 -43.974404 2.446774 71.780712 0.340751 0.000000 0.000000 -19.206417 1.676735 -9.887360 0.213779 -0.000000 -0.000000 0.724584 -4.040399 0.465338 -0.039679 0.002820 0.186820 2.735164 7.418982 5.130225 -0.111855 0.000000 0.000000 42.855076 5.076733 -67.908295 -0.340751 -0.000000 0.000000 25.512548 1.991140 8.778264 -0.213779 0.000000 0.000000 -1.286370 -9.801074 6.946016 0.099312 0.000000 0.000000 9.290226 -1.127328 -3.485843 -0.000000 0.000000 -0.476468 -4.427087 4.631162 1.815662 -0.000000 0.000000 -0.378939 12.361637 -3.599346 1.050173 0.000000 -0.148968 -0.064553 -0.000001 0.000001 -0.000000 -0.099312 0.000000 -0.000000 -0.235036 -6.969072 3.318010 0.000000 0.000000 -0.476468 2.917717 20.527560 0.770800 -0.000000 0.000000 -0.378939 -18.382452 -14.850805 -6.143167 0.000000 -0.148968 -0.064553 -0.000002 0.000001 -0.000000 
0.348340 -0.208601 1.009499 49.043145 1.800249 -3.656602 -0.000000 0.000000 0.081436 0.026460 -8.299822 0.364263 -0.000000 -0.000000 0.206037 -1.726716 4.488636 -0.833999 0.000000 -0.000000 0.206037 1.437522 22.684267 -7.157799 -0.000000 -0.000000 0.109243 21.801624 6.988250 0.146380 0.039631 0.002820 0.186820 5.096098 12.758108 0.504166 0.111855 -0.000000 0.000000 -43.758314 3.013285 71.997632 0.340751 -0.000000 0.000000 -18.401143 1.530987 -9.432346 0.213779 0.000000 -0.000000 -0.174197 -4.067962 0.282951 -0.039679 0.002820 0.186820 2.887846 7.349056 5.181154 -0.111855 -0.000000 0.000000 43.409875 5.529054 -67.745054 -0.340751 0.000000 0.000000 25.213039 1.991842 8.888726 -0.213779 -0.000000 0.000000 -0.989571 -9.891062 6.549178 0.099312 0.000000 0.000000 8.963797 -1.439170 -3.356073 0.000000 0.000000 -0.476468 -4.581702 4.817361 1.768553 0.000000 0.000000 -0.378939 11.941712 -4.009173 1.315738 -0.000000 -0.148968 -0.064553 -0.000002 0.000000 -0.000001 -0.099312 0.000000 0.000000 -0.600296 -7.007865 3.419119 -0.000000 0.000000 -0.476468 2.897660 20.500005 0.799151 0.000000 0.000000 -0.378939 -18.516790 -14.866163 -6.149607 0.000000 -0.148968 -0.064553 0.000000 0.000002 -0.000000 
